<?xml version="1.0" encoding="utf-8"?>
<?xml-stylesheet type="text/css" href="../css/main.css"?>
<!-- Generator: Adobe Illustrator 27.4.0, SVG Export Plug-In . SVG Version: 6.00 Build 0)  -->
<svg version="1.1" id="레이어_1" xmlns="http://www.w3.org/2000/svg" xmlns:xlink="http://www.w3.org/1999/xlink" x="0px"
	 y="0px" viewBox="0 0 389.36 260.43" style="enable-background:new 0 0 389.36 260.43;" xml:space="preserve">
<path class="st0" d="M0,220.34c0,0,52.6,28.09,125.11,10.21c0,0,18.38-3.06,28.09,0.51c0,0,10.21,4.6,9.19,12.26
	c0,0,1.53,12.77-25.02,10.21c0,0-20.43-2.04-0.51-19.91c0,0,5.11-8.17,30.64-0.51c0,0,19.81,11.23,47.69,6.64l37.59,1.53
	c0,0,9.7,2.55,13.28-10.21c0,0,0.51-12.77-15.32-10.72l-25.02-9.19c0,0-4.6,3.57,2.55,7.15c0,0,9.19,5.62,21.96-27.06l8.68-25.53
	c0,0,3.06-10.46,2.04-12.89c-1.02-2.43-9.7,15.44-14.3,19.02c0,0-15.32,20.43-19.91,20.94c0,0-4.34,6.77,9.06-2.43
	c0,0,12.89-9.06,18-16.85c0,0,11.11-14.94,14.17-32.17c0,0,1.53-5.36-3.06-17.62c0,0-12.26-17.23-27.57,0l-9.57,10.72
	c0,0-5.74,6.51,0-4.98c0,0,11.87-47.11-16.09-45.19c0,0-21.45-1.15-12.26-15.32c0,0,6.51-9.57,10.72-7.28c0,0-4.21,9.96-23.36,4.98
	c0,0-18.77-16.09,7.28-47.87c0,0,3.83-3.06,8.81-2.68c0,0-8.43,19.53,2.3,26.04s10.03,15.32,10.03,15.32s0.56,7.66-7.04,10.72
	c0,0,13.09,5.36,21.9-12.64c0,0,12.26-34.09-6.51-44.43c0,0-24.13-12.64-37.15,6.51l-14.17,23.74c0,0-9.57,15.32-2.3,24.13
	c0,0,13.75,12.67,22.98,14.55c0,0,16.09-7.66,19.53,10.34c0,0,4.21,12.26-8.43,27.96c0,0-19.15,18.77-15.32,37.53
	c0,0,3.45,13.02,6.13,4.6c0,0-3.06-22.98,17.62-13.02c0,0,8.04,4.6,0.77,19.53c0,0-15.32,28.72-2.3,31.79l10.34,10.34
	c0,0,0.77,2.68,0.38,8.04c0,0,3.6,13.4-6.44,16.47c0,0-2.37,4.6-16.54-0.77c0,0,5.36,1.53,1.53-9.57c0,0,4.84,18,7.98,8.04
	l-2.23-11.11l6.13,8.43c0,0,5.13,6.51,3.14-2.3c0,0-5.74-14.77,0-6.13c0,0,9.12,14.94,1.84-5.74l-4.98-6.89l-3.9,3.45
	c0,0-3.76-0.77-4.91,3.45c0,0-3.83-1.15-5.36,3.83c0,0-5.36-0.77-3.06,4.6c0,0,0.77,9.96-2.68,10.34c0,0-3.45,5.36-1.53-4.98
	c0,0,1.91-7.66-1.91-11.49c0,0,1.53-25.66-16.85-31.79c0,0-13.02-9.96-30.26-1.15c0,0-21.45,0-11.87-8.43c0,0,2.3-0.77,0.38-9.57
	l-1.15-33.32c0,0-14.17-60.89,0.77-63.19c0,0,6.89-4.21,16.47,14.94c0,0,9.19,16.85,10.34,29.49c1.15,12.64,18.77,29.11,18.77,29.11
	s4.98,5.74-5.74,7.28c-10.72,1.53-12.26,11.11-12.26,11.11s-4.98,8.04-11.11-2.3c0,0-7.18-9.2-12.07-13.79c-4.89-4.59,0-4.98,0-4.98
	s12.39,12.51,18.96-2.3c0,0,8.81-20.3,14.55,2.68c0,0,14.55,20.68,17.23,26.43c2.68,5.74,4.98,7.28,4.98,7.28s2.95-1.09-1.91,9.19
	c0,0,2.68,14.17-8.04,3.45l-18-15.7c0,0,0-5.36-10.72,2.3c0,0-24.89,23.74-21.83,37.91c0,0,1.15,21.06,6.89,9.57
	c0,0,0-15.32,30.64,6.51c0,0,10.34,9.19,27.57,9.57c0,0,68.17-3.06,78.13,2.3c0,0,24.51,4.21,47.49-1.15c0,0,40.6-9.19,69.32-7.66"
	/>
</svg>
